<?xml version="1.0" encoding="utf-8"?>
<!-- Generator: Adobe Illustrator 16.0.0, SVG Export Plug-In . SVG Version: 6.00 Build 0)  -->
<!DOCTYPE svg PUBLIC "-//W3C//DTD SVG 1.1//EN" "http://www.w3.org/Graphics/SVG/1.1/DTD/svg11.dtd">
<svg version="1.1" id="Layer_1" xmlns="http://www.w3.org/2000/svg" xmlns:xlink="http://www.w3.org/1999/xlink" x="0px" y="0px"
	 width="5000px" height="5000px" viewBox="0 0 5000 5000" enable-background="new 0 0 5000 5000" xml:space="preserve">
<radialGradient id="SVGID_1_" cx="2706" cy="2205" r="2440.375" gradientTransform="matrix(1 0 0 -1 -206 4705)" gradientUnits="userSpaceOnUse">
	<stop  offset="0" style="stop-color:#FFFFFF"/>
	<stop  offset="0.8922" style="stop-color:#FFFFFF"/>
	<stop  offset="1" style="stop-color:#393839"/>
</radialGradient>
<path fill="url(#SVGID_1_)" stroke="#000000" stroke-width="0.5" stroke-miterlimit="10" stroke-dasharray="12" d="M59.626,2500.005
	c0-1347.79,1092.591-2440.381,2440.372-2440.381c1347.794,0,2440.376,1092.591,2440.376,2440.381
	c0,1347.796-1092.582,2440.371-2440.376,2440.371C1152.217,4940.376,59.626,3847.801,59.626,2500.005z"/>
<g>
	<g>
		<path fill="#404040" stroke="#000000" stroke-width="0.5" stroke-miterlimit="10" d="M2499.998,2500.005L2098.742,224.363
			c139.504-24.595,259.602-35.102,401.256-35.102V2500.005z"/>
	</g>
</g>
<g>
	<g>
		<path fill="#808080" stroke="#000000" stroke-width="0.5" stroke-miterlimit="10" d="M2499.998,2500.005L1709.688,328.614
			c133.109-48.447,249.557-79.654,389.056-104.251L2499.998,2500.005z"/>
	</g>
</g>
<g>
	<g>
		<path fill="#DFDFDF" stroke="#000000" stroke-width="0.5" stroke-miterlimit="10" d="M2499.998,2500.005L1344.628,498.841
			c122.685-70.826,231.938-121.778,365.06-170.227L2499.998,2500.005z"/>
	</g>
</g>
<g>
	<g>
		<path stroke="#000000" stroke-width="0.5" stroke-miterlimit="10" d="M2499.998,2500.005L1014.688,729.869
			c108.511-91.055,207.266-160.2,329.94-231.028L2499.998,2500.005z"/>
	</g>
</g>
<g>
	<g>
		<path fill="#606060" stroke="#000000" stroke-width="0.5" stroke-miterlimit="10" d="M2499.998,2500.005L729.869,1014.688
			c91.056-108.521,176.298-193.762,284.818-284.817L2499.998,2500.005z"/>
	</g>
</g>
<g>
	<g>
		<path fill="#BFBFBF" stroke="#000000" stroke-width="0.5" stroke-miterlimit="10" d="M2499.998,2500.005L498.839,1344.627
			c70.829-122.67,139.974-221.428,231.03-329.939L2499.998,2500.005z"/>
	</g>
</g>
<g>
	<g>
		<path fill="#202020" stroke="#000000" stroke-width="0.5" stroke-miterlimit="10" d="M2499.998,2500.005L328.613,1709.684
			c48.445-133.11,99.397-242.367,170.226-365.057L2499.998,2500.005z"/>
	</g>
</g>
<g>
	<g>
		<path fill="#9F9F9F" stroke="#000000" stroke-width="0.5" stroke-miterlimit="10" d="M2499.998,2500.005L224.363,2098.746
			c24.598-139.506,55.803-255.953,104.25-389.062L2499.998,2500.005z"/>
	</g>
</g>
<g>
	<g>
		<path fill="#404040" stroke="#000000" stroke-width="0.5" stroke-miterlimit="10" d="M2499.998,2500.005H189.26
			c0-141.655,10.509-261.754,35.104-401.259L2499.998,2500.005z"/>
	</g>
</g>
<g>
	<g>
		<path fill="#808080" stroke="#000000" stroke-width="0.5" stroke-miterlimit="10" d="M2499.998,2500.005L224.363,2901.26
			c-24.595-139.504-35.104-259.602-35.104-401.255H2499.998z"/>
	</g>
</g>
<g>
	<g>
		<path fill="#DFDFDF" stroke="#000000" stroke-width="0.5" stroke-miterlimit="10" d="M2499.998,2500.005L328.613,3290.322
			c-48.447-133.109-79.652-249.561-104.25-389.062L2499.998,2500.005z"/>
	</g>
</g>
<g>
	<g>
		<path stroke="#000000" stroke-width="0.5" stroke-miterlimit="10" d="M2499.998,2500.005L498.839,3655.377
			c-70.827-122.676-121.779-231.932-170.226-365.055L2499.998,2500.005z"/>
	</g>
</g>
<g>
	<g>
		<path fill="#606060" stroke="#000000" stroke-width="0.5" stroke-miterlimit="10" d="M2499.998,2500.005L729.869,3985.324
			c-91.059-108.521-160.201-207.274-231.03-329.947L2499.998,2500.005z"/>
	</g>
</g>
<g>
	<g>
		<path fill="#BFBFBF" stroke="#000000" stroke-width="0.5" stroke-miterlimit="10" d="M2499.998,2500.005l-1485.311,1770.13
			c-108.521-91.055-193.764-176.303-284.818-284.811L2499.998,2500.005z"/>
	</g>
</g>
<g>
	<g>
		<path fill="#202020" stroke="#000000" stroke-width="0.5" stroke-miterlimit="10" d="M2499.998,2500.005L1344.628,4501.16
			c-122.676-70.816-221.431-139.977-329.939-231.025L2499.998,2500.005z"/>
	</g>
</g>
<g>
	<g>
		<path fill="#9F9F9F" stroke="#000000" stroke-width="0.5" stroke-miterlimit="10" d="M2499.998,2500.005l-790.311,2171.387
			c-133.123-48.455-242.375-99.394-365.061-170.231L2499.998,2500.005z"/>
	</g>
</g>
<g>
	<g>
		<path fill="#404040" stroke="#000000" stroke-width="0.5" stroke-miterlimit="10" d="M2499.998,2500.005l-401.256,2275.638
			c-139.499-24.602-255.945-55.801-389.055-104.251L2499.998,2500.005z"/>
	</g>
</g>
<g>
	<g>
		<path fill="#808080" stroke="#000000" stroke-width="0.5" stroke-miterlimit="10" d="M2499.998,2500.005v2310.743
			c-141.654,0-261.752-10.504-401.256-35.105L2499.998,2500.005z"/>
	</g>
</g>
<g>
	<g>
		<path fill="#DFDFDF" stroke="#000000" stroke-width="0.5" stroke-miterlimit="10" d="M2499.998,2500.005l401.256,2275.638
			c-139.504,24.602-259.601,35.105-401.256,35.105V2500.005z"/>
	</g>
</g>
<g>
	<g>
		<path stroke="#000000" stroke-width="0.5" stroke-miterlimit="10" d="M2499.998,2500.005l790.321,2171.387
			c-133.106,48.45-249.552,79.649-389.065,104.251L2499.998,2500.005z"/>
	</g>
</g>
<g>
	<g>
		<path fill="#606060" stroke="#000000" stroke-width="0.5" stroke-miterlimit="10" d="M2499.998,2500.005L3655.37,4501.16
			c-122.67,70.838-231.935,121.775-365.051,170.23L2499.998,2500.005z"/>
	</g>
</g>
<g>
	<g>
		<path fill="#BFBFBF" stroke="#000000" stroke-width="0.5" stroke-miterlimit="10" d="M2499.998,2500.005l1485.323,1770.13
			c-108.515,91.049-207.271,160.209-329.951,231.025L2499.998,2500.005z"/>
	</g>
</g>
<g>
	<g>
		<path fill="#202020" stroke="#000000" stroke-width="0.5" stroke-miterlimit="10" d="M2499.998,2500.005L4270.13,3985.324
			c-91.051,108.508-176.301,193.756-284.81,284.811L2499.998,2500.005z"/>
	</g>
</g>
<g>
	<g>
		<path fill="#9F9F9F" stroke="#000000" stroke-width="0.5" stroke-miterlimit="10" d="M2499.998,2500.005l2001.157,1155.372
			c-70.821,122.673-139.97,221.427-231.024,329.947L2499.998,2500.005z"/>
	</g>
</g>
<g>
	<g>
		<path fill="#404040" stroke="#000000" stroke-width="0.5" stroke-miterlimit="10" d="M2499.998,2500.005l2171.391,790.317
			c-48.449,133.123-99.401,242.379-170.232,365.055L2499.998,2500.005z"/>
	</g>
</g>
<g>
	<g>
		<path fill="#808080" stroke="#000000" stroke-width="0.5" stroke-miterlimit="10" d="M2499.998,2500.005l2275.641,401.255
			c-24.601,139.503-55.807,255.953-104.25,389.062L2499.998,2500.005z"/>
	</g>
</g>
<g>
	<g>
		<path fill="#DFDFDF" stroke="#000000" stroke-width="0.5" stroke-miterlimit="10" d="M2499.998,2500.005h2310.748
			c0,141.653-10.512,261.751-35.107,401.255L2499.998,2500.005z"/>
	</g>
</g>
<g>
	<g>
		<path stroke="#000000" stroke-width="0.5" stroke-miterlimit="10" d="M2499.998,2500.005l2275.641-401.259
			c24.597,139.505,35.107,259.604,35.107,401.259H2499.998z"/>
	</g>
</g>
<g>
	<g>
		<path fill="#606060" stroke="#000000" stroke-width="0.5" stroke-miterlimit="10" d="M2499.998,2500.005l2171.391-790.321
			c48.443,133.109,79.649,249.558,104.25,389.062L2499.998,2500.005z"/>
	</g>
</g>
<g>
	<g>
		<path fill="#BFBFBF" stroke="#000000" stroke-width="0.5" stroke-miterlimit="10" d="M2499.998,2500.005l2001.157-1155.378
			c70.831,122.688,121.784,231.945,170.233,365.057L2499.998,2500.005z"/>
	</g>
</g>
<g>
	<g>
		<path fill="#202020" stroke="#000000" stroke-width="0.5" stroke-miterlimit="10" d="M2499.998,2500.005L4270.13,1014.688
			c91.056,108.513,160.203,207.271,231.024,329.939L2499.998,2500.005z"/>
	</g>
</g>
<g>
	<g>
		<path fill="#9F9F9F" stroke="#000000" stroke-width="0.5" stroke-miterlimit="10" d="M2499.998,2500.005L3985.321,729.869
			c108.508,91.057,193.758,176.298,284.809,284.818L2499.998,2500.005z"/>
	</g>
</g>
<g>
	<g>
		<path fill="#404040" stroke="#000000" stroke-width="0.5" stroke-miterlimit="10" d="M2499.998,2500.005L3655.37,498.841
			c122.682,70.828,221.438,139.975,329.951,231.028L2499.998,2500.005z"/>
	</g>
</g>
<g>
	<g>
		<path fill="#808080" stroke="#000000" stroke-width="0.5" stroke-miterlimit="10" d="M2499.998,2500.005l790.321-2171.391
			c133.116,48.448,242.381,99.4,365.051,170.227L2499.998,2500.005z"/>
	</g>
</g>
<g>
	<g>
		<path fill="#DFDFDF" stroke="#000000" stroke-width="0.5" stroke-miterlimit="10" d="M2499.998,2500.005l401.256-2275.642
			c139.514,24.597,255.959,55.804,389.065,104.251L2499.998,2500.005z"/>
	</g>
</g>
<g>
	<g>
		<path stroke="#000000" stroke-width="0.5" stroke-miterlimit="10" d="M2499.998,2500.005V189.262
			c141.655,0,261.752,10.507,401.256,35.102L2499.998,2500.005z"/>
	</g>
</g>
<path fill="#FFFFFF" stroke="#000000" stroke-miterlimit="10" d="M254.739,2500.005c0-1240.027,1005.236-2245.266,2245.259-2245.266
	c1240.03,0,2245.268,1005.238,2245.268,2245.266c0,1240.021-1005.236,2245.257-2245.268,2245.257
	C1259.976,4745.262,254.739,3740.025,254.739,2500.005z"/>
<path fill="#FFFFFF" stroke="#000000" stroke-width="2" stroke-miterlimit="10" stroke-dasharray="12" d="M434.783,2500.005
	c0-1140.593,924.627-2065.222,2065.215-2065.222c1140.6,0,2065.221,924.629,2065.221,2065.222
	c0,1140.601-924.621,2065.216-2065.221,2065.216C1359.41,4565.221,434.783,3640.605,434.783,2500.005z"/>
<path fill="none" stroke="#000000" stroke-width="0.25" stroke-miterlimit="10" stroke-dasharray="12" d="M328.3,2500.005
	c0-1199.401,972.304-2171.702,2171.698-2171.702c1199.405,0,2171.7,972.301,2171.7,2171.702
	c0,1199.413-972.295,2171.698-2171.7,2171.698C1300.604,4671.703,328.3,3699.418,328.3,2500.005z"/>
<path fill="#FFFFFF" stroke="#000000" stroke-width="5" stroke-miterlimit="10" stroke-dasharray="12" d="M622.69,2500.005
	c0-1036.822,840.493-1877.313,1877.308-1877.313s1877.312,840.491,1877.312,1877.313c0,1036.808-840.5,1877.315-1877.312,1877.315
	S622.69,3536.812,622.69,2500.005z"/>
<path fill="#FFFFFF" stroke="#000000" stroke-width="2" stroke-miterlimit="10" stroke-dasharray="12" d="M915.332,2500.005
	c0-875.19,709.475-1584.671,1584.666-1584.671c875.196,0,1584.678,709.479,1584.678,1584.671
	c0,875.197-709.48,1584.667-1584.678,1584.667C1624.807,4084.672,915.332,3375.202,915.332,2500.005z"/>
<path fill="none" stroke="#000000" stroke-width="60" stroke-miterlimit="10" stroke-dasharray="12" d="M145.149,2500.006
	c0-1300.551,1054.294-2354.853,2354.846-2354.853c1300.56,0,2354.863,1054.301,2354.863,2354.853
	c0,1300.561-1054.302,2354.848-2354.863,2354.848C1199.443,4854.854,145.149,3800.566,145.149,2500.006z"/>
<path fill="none" stroke="#000000" stroke-width="30" stroke-miterlimit="10" stroke-dasharray="12" d="M99.559,2315.735
	C201.329,990.006,1358.534-2.208,2684.266,99.562c1325.738,101.771,2317.953,1258.983,2216.184,2584.715
	c-101.771,1325.739-1258.984,2317.938-2584.724,2216.167C989.993,4798.673-2.212,3641.475,99.559,2315.735z"/>
</svg>
