<?xml version="1.0" encoding="utf-8"?>
<!-- Generator: Adobe Illustrator 16.0.0, SVG Export Plug-In . SVG Version: 6.00 Build 0)  -->
<!DOCTYPE svg PUBLIC "-//W3C//DTD SVG 1.1//EN" "http://www.w3.org/Graphics/SVG/1.1/DTD/svg11.dtd">
<svg version="1.1" id="Layer_1" xmlns="http://www.w3.org/2000/svg" xmlns:xlink="http://www.w3.org/1999/xlink" x="0px" y="0px"
	 width="2500px" height="2500px" viewBox="0 0 2500 2500" enable-background="new 0 0 2500 2500" xml:space="preserve">
<g>
	<g>
		<g>
			<path fill="#404040" stroke="#000000" stroke-width="0.5" stroke-miterlimit="10" d="M1249.996,1249.994L1033.025,19.481
				C1108.461,6.181,1173.406,0.5,1249.996,0.5V1249.994z"/>
		</g>
	</g>
	<g>
		<g>
			<path fill="#808080" stroke="#000000" stroke-width="0.5" stroke-miterlimit="10" d="M1249.996,1249.994L822.646,75.853
				c71.977-26.198,134.945-43.071,210.379-56.372L1249.996,1249.994z"/>
		</g>
	</g>
	<g>
		<g>
			<path fill="#DFDFDF" stroke="#000000" stroke-width="0.5" stroke-miterlimit="10" d="M1249.996,1249.994L625.248,167.898
				c66.338-38.298,125.418-65.849,197.398-92.046L1249.996,1249.994z"/>
		</g>
	</g>
	<g>
		<g>
			<path stroke="#000000" stroke-width="0.5" stroke-miterlimit="10" d="M1249.996,1249.994L446.837,292.825
				c58.675-49.239,112.076-86.627,178.411-124.926L1249.996,1249.994z"/>
		</g>
	</g>
	<g>
		<g>
			<path fill="#606060" stroke="#000000" stroke-width="0.5" stroke-miterlimit="10" d="M1249.996,1249.994L292.824,446.835
				c49.24-58.679,95.333-104.772,154.013-154.01L1249.996,1249.994z"/>
		</g>
	</g>
	<g>
		<g>
			<path fill="#BFBFBF" stroke="#000000" stroke-width="0.5" stroke-miterlimit="10" d="M1249.996,1249.994L167.9,625.25
				c38.298-66.335,75.688-119.738,124.924-178.415L1249.996,1249.994z"/>
		</g>
	</g>
	<g>
		<g>
			<path fill="#202020" stroke="#000000" stroke-width="0.5" stroke-miterlimit="10" d="M1249.996,1249.994L75.853,822.646
				c26.196-71.981,53.749-131.06,92.048-197.396L1249.996,1249.994z"/>
		</g>
	</g>
	<g>
		<g>
			<path fill="#9F9F9F" stroke="#000000" stroke-width="0.5" stroke-miterlimit="10" d="M1249.996,1249.994L19.479,1033.026
				c13.302-75.437,30.176-138.405,56.373-210.38L1249.996,1249.994z"/>
		</g>
	</g>
	<g>
		<g>
			<path fill="#404040" stroke="#000000" stroke-width="0.5" stroke-miterlimit="10" d="M1249.996,1249.994H0.499
				c0-76.59,5.681-141.534,18.98-216.967L1249.996,1249.994z"/>
		</g>
	</g>
	<g>
		<g>
			<path fill="#808080" stroke="#000000" stroke-width="0.5" stroke-miterlimit="10" d="M1249.996,1249.994L19.479,1466.966
				c-13.3-75.434-18.98-140.37-18.98-216.972H1249.996z"/>
		</g>
	</g>
	<g>
		<g>
			<path fill="#DFDFDF" stroke="#000000" stroke-width="0.5" stroke-miterlimit="10" d="M1249.996,1249.994L75.853,1677.348
				c-26.197-71.978-43.071-134.939-56.373-210.382L1249.996,1249.994z"/>
		</g>
	</g>
	<g>
		<g>
			<path stroke="#000000" stroke-width="0.5" stroke-miterlimit="10" d="M1249.996,1249.994L167.9,1874.747
				c-38.299-66.337-65.852-125.412-92.048-197.399L1249.996,1249.994z"/>
		</g>
	</g>
	<g>
		<g>
			<path fill="#606060" stroke="#000000" stroke-width="0.5" stroke-miterlimit="10" d="M1249.996,1249.994l-957.172,803.173
				c-49.235-58.681-86.626-112.088-124.924-178.42L1249.996,1249.994z"/>
		</g>
	</g>
	<g>
		<g>
			<path fill="#BFBFBF" stroke="#000000" stroke-width="0.5" stroke-miterlimit="10" d="M1249.996,1249.994l-803.159,957.171
				c-58.68-49.227-104.772-95.33-154.013-153.998L1249.996,1249.994z"/>
		</g>
	</g>
	<g>
		<g>
			<path fill="#202020" stroke="#000000" stroke-width="0.5" stroke-miterlimit="10" d="M1249.996,1249.994L625.248,2332.098
				c-66.335-38.305-119.736-75.693-178.411-124.933L1249.996,1249.994z"/>
		</g>
	</g>
	<g>
		<g>
			<path fill="#9F9F9F" stroke="#000000" stroke-width="0.5" stroke-miterlimit="10" d="M1249.996,1249.994l-427.35,1174.153
				c-71.98-26.203-131.061-53.749-197.398-92.049L1249.996,1249.994z"/>
		</g>
	</g>
	<g>
		<g>
			<path fill="#404040" stroke="#000000" stroke-width="0.5" stroke-miterlimit="10" d="M1249.996,1249.994l-216.971,1230.528
				c-75.434-13.309-138.402-30.18-210.379-56.375L1249.996,1249.994z"/>
		</g>
	</g>
	<g>
		<g>
			<path fill="#808080" stroke="#000000" stroke-width="0.5" stroke-miterlimit="10" d="M1249.996,1249.994V2499.5
				c-76.59,0-141.535-5.684-216.971-18.979L1249.996,1249.994z"/>
		</g>
	</g>
	<g>
		<g>
			<path fill="#DFDFDF" stroke="#000000" stroke-width="0.5" stroke-miterlimit="10" d="M1249.996,1249.994l216.974,1230.528
				c-75.435,13.295-140.367,18.979-216.974,18.979V1249.994z"/>
		</g>
	</g>
	<g>
		<g>
			<path stroke="#000000" stroke-width="0.5" stroke-miterlimit="10" d="M1249.996,1249.994l427.354,1174.153
				c-71.975,26.195-134.938,43.066-210.381,56.375L1249.996,1249.994z"/>
		</g>
	</g>
	<g>
		<g>
			<path fill="#606060" stroke="#000000" stroke-width="0.5" stroke-miterlimit="10" d="M1249.996,1249.994l624.75,1082.104
				c-66.334,38.3-125.414,65.846-197.396,92.049L1249.996,1249.994z"/>
		</g>
	</g>
	<g>
		<g>
			<path fill="#BFBFBF" stroke="#000000" stroke-width="0.5" stroke-miterlimit="10" d="M1249.996,1249.994l803.172,957.171
				c-58.676,49.239-112.084,86.628-178.422,124.933L1249.996,1249.994z"/>
		</g>
	</g>
	<g>
		<g>
			<path fill="#202020" stroke="#000000" stroke-width="0.5" stroke-miterlimit="10" d="M1249.996,1249.994l957.171,803.173
				c-49.229,58.668-95.327,104.771-153.999,153.998L1249.996,1249.994z"/>
		</g>
	</g>
	<g>
		<g>
			<path fill="#9F9F9F" stroke="#000000" stroke-width="0.5" stroke-miterlimit="10" d="M1249.996,1249.994l1082.107,624.753
				c-38.306,66.332-75.696,119.739-124.937,178.42L1249.996,1249.994z"/>
		</g>
	</g>
	<g>
		<g>
			<path fill="#404040" stroke="#000000" stroke-width="0.5" stroke-miterlimit="10" d="M1249.996,1249.994l1174.154,427.354
				c-26.208,71.987-53.751,131.062-92.047,197.399L1249.996,1249.994z"/>
		</g>
	</g>
	<g>
		<g>
			<path fill="#808080" stroke="#000000" stroke-width="0.5" stroke-miterlimit="10" d="M1249.996,1249.994l1230.526,216.972
				c-13.309,75.442-30.172,138.404-56.372,210.382L1249.996,1249.994z"/>
		</g>
	</g>
	<g>
		<g>
			<path fill="#DFDFDF" stroke="#000000" stroke-width="0.5" stroke-miterlimit="10" d="M1249.996,1249.994h1249.505
				c0,76.602-5.682,141.538-18.979,216.972L1249.996,1249.994z"/>
		</g>
	</g>
	<g>
		<g>
			<path stroke="#000000" stroke-width="0.5" stroke-miterlimit="10" d="M1249.996,1249.994l1230.526-216.967
				c13.297,75.433,18.979,140.377,18.979,216.967H1249.996z"/>
		</g>
	</g>
	<g>
		<g>
			<path fill="#606060" stroke="#000000" stroke-width="0.5" stroke-miterlimit="10" d="M1249.996,1249.994L2424.15,822.646
				c26.2,71.975,43.063,134.943,56.372,210.38L1249.996,1249.994z"/>
		</g>
	</g>
	<g>
		<g>
			<path fill="#BFBFBF" stroke="#000000" stroke-width="0.5" stroke-miterlimit="10" d="M1249.996,1249.994L2332.104,625.25
				c38.296,66.337,65.839,125.415,92.047,197.396L1249.996,1249.994z"/>
		</g>
	</g>
	<g>
		<g>
			<path fill="#202020" stroke="#000000" stroke-width="0.5" stroke-miterlimit="10" d="M1249.996,1249.994l957.171-803.159
				c49.24,58.676,86.631,112.079,124.937,178.415L1249.996,1249.994z"/>
		</g>
	</g>
	<g>
		<g>
			<path fill="#9F9F9F" stroke="#000000" stroke-width="0.5" stroke-miterlimit="10" d="M1249.996,1249.994l803.172-957.169
				c58.672,49.238,104.77,95.332,153.999,154.01L1249.996,1249.994z"/>
		</g>
	</g>
	<g>
		<g>
			<path fill="#404040" stroke="#000000" stroke-width="0.5" stroke-miterlimit="10" d="M1249.996,1249.994l624.75-1082.095
				c66.338,38.299,119.746,75.688,178.422,124.926L1249.996,1249.994z"/>
		</g>
	</g>
	<g>
		<g>
			<path fill="#808080" stroke="#000000" stroke-width="0.5" stroke-miterlimit="10" d="M1249.996,1249.994L1677.351,75.853
				c71.981,26.197,131.062,53.748,197.396,92.046L1249.996,1249.994z"/>
		</g>
	</g>
	<g>
		<g>
			<path fill="#DFDFDF" stroke="#000000" stroke-width="0.5" stroke-miterlimit="10" d="M1249.996,1249.994L1466.97,19.481
				c75.443,13.3,138.406,30.173,210.381,56.372L1249.996,1249.994z"/>
		</g>
	</g>
	<g>
		<g>
			<path stroke="#000000" stroke-width="0.5" stroke-miterlimit="10" d="M1249.996,1249.994V0.5
				c76.606,0,141.539,5.681,216.974,18.981L1249.996,1249.994z"/>
		</g>
	</g>
</g>
<g>
	<g>
	</g>
	<g>
	</g>
	<g>
	</g>
	<g>
	</g>
	<g>
	</g>
	<g>
	</g>
	<g>
	</g>
	<g>
	</g>
	<g>
	</g>
	<g>
	</g>
	<g>
	</g>
	<g>
	</g>
	<g>
	</g>
	<g>
	</g>
	<g>
	</g>
	<g>
	</g>
	<g>
	</g>
	<g>
	</g>
	<g>
	</g>
	<g>
	</g>
	<g>
	</g>
	<g>
	</g>
	<g>
	</g>
	<g>
	</g>
	<g>
	</g>
	<g>
	</g>
	<g>
	</g>
	<g>
	</g>
	<g>
	</g>
	<g>
	</g>
	<g>
	</g>
	<g>
	</g>
	<g>
	</g>
	<g>
	</g>
	<g>
	</g>
	<g>
	</g>
</g>
</svg>
