<?xml version="1.0" encoding="utf-8"?>
<!-- Generator: Adobe Illustrator 16.0.0, SVG Export Plug-In . SVG Version: 6.00 Build 0)  -->
<!DOCTYPE svg PUBLIC "-//W3C//DTD SVG 1.1//EN" "http://www.w3.org/Graphics/SVG/1.1/DTD/svg11.dtd">
<svg version="1.1" id="Layer_1" xmlns="http://www.w3.org/2000/svg" xmlns:xlink="http://www.w3.org/1999/xlink" x="0px" y="0px"
	 width="207.997px" height="104.126px" viewBox="0 0 207.997 104.126" enable-background="new 0 0 207.997 104.126"
	 xml:space="preserve">
<path fill="#FFF100" d="M32.219,2.636h148.603l22.926,90.124c0,0,10.19,8.73-99.351,8.73c-109.541,0-100.2-7.961-100.2-7.961
	L32.219,2.636z"/>
<g>
	<polygon fill="#EC1C24" points="69.701,4.557 54.153,72.219 38.605,4.557 	"/>
	<path fill="#224099" d="M69.701,4.557c-0.489,2.855-0.968,5.714-1.495,8.561c-0.507,2.852-1.045,5.696-1.586,8.54
		c-0.532,2.846-1.08,5.688-1.65,8.524l-1.693,8.516c-1.185,5.664-2.314,11.341-3.546,16.994c-1.236,5.652-2.41,11.318-3.696,16.96
		l-1.855,8.139l-1.908-8.139l-1.981-8.449l-1.967-8.453l-3.812-16.933l-3.667-16.966l-1.759-8.5
		c-0.581-2.835-1.185-5.665-1.735-8.506l-0.314-1.624l1.569,0.048l7.774,0.238l7.774,0.289c2.591,0.093,5.183,0.215,7.774,0.34
		C64.519,4.247,67.11,4.415,69.701,4.557z M69.701,4.557c-2.591,0.142-5.183,0.31-7.774,0.42c-2.591,0.125-5.183,0.248-7.774,0.34
		l-7.774,0.289l-7.774,0.238l1.254-1.575c0.746,2.797,1.437,5.606,2.152,8.41l2.128,8.416l4.107,16.864l3.962,16.898l1.919,8.464
		l1.906,8.466h-3.763c1.306-5.636,2.723-11.247,4.078-16.871c1.36-5.624,2.822-11.225,4.228-16.838l2.194-8.4
		c0.726-2.801,1.473-5.598,2.237-8.39c0.754-2.795,1.512-5.589,2.3-8.376C68.078,10.12,68.895,7.339,69.701,4.557z"/>
</g>
<g>
	<polygon fill="#EC1C24" points="134.12,4.557 103.624,79.107 73.127,4.557 	"/>
	<path fill="#224099" d="M134.12,4.557l-3.429,9.476l-3.5,9.445l-3.546,9.428l-3.596,9.408c-2.388,6.274-4.86,12.516-7.287,18.775
		l-3.699,9.364l-3.717,9.357L103.682,84l-1.779-4.189c-2.625-6.178-5.146-12.399-7.721-18.598c-2.572-6.2-5.122-12.409-7.628-18.637
		c-2.509-6.226-5.066-12.432-7.535-18.674l-7.421-18.72l-0.92-2.32l2.45,0.042l15.248,0.257l15.249,0.346l15.248,0.446
		C123.955,4.126,129.037,4.322,134.12,4.557z M134.12,4.557c-5.083,0.235-10.165,0.43-15.248,0.604l-15.248,0.446L88.375,5.953
		L73.127,6.209l1.53-2.279l7.827,18.555c2.615,6.183,5.14,12.401,7.714,18.601c2.577,6.198,5.11,12.414,7.62,18.64
		c2.508,6.226,5.071,12.43,7.528,18.677h-3.443l3.906-9.28l3.925-9.272c2.656-6.166,5.267-12.351,7.961-18.5l4.028-9.23l4.078-9.21
		l4.124-9.191L134.12,4.557z"/>
</g>
<g>
	<polygon fill="#EC1C24" points="169.391,4.557 153.842,71.725 138.294,4.557 	"/>
	<path fill="#224099" d="M169.391,4.557c-0.489,2.835-0.969,5.673-1.496,8.5c-0.507,2.831-1.045,5.655-1.587,8.479
		c-0.532,2.825-1.08,5.647-1.65,8.464l-1.693,8.454c-1.186,5.623-2.315,11.259-3.546,16.871c-1.235,5.611-2.411,11.236-3.695,16.837
		l-1.854,8.079l-1.908-8.079l-1.98-8.388l-1.968-8.391l-3.812-16.81l-3.668-16.843l-1.761-8.438
		c-0.579-2.814-1.187-5.623-1.737-8.444l-0.318-1.633l1.578,0.048l7.774,0.239l7.774,0.29c2.591,0.094,5.183,0.215,7.773,0.341
		C164.208,4.246,166.799,4.414,169.391,4.557z M169.391,4.557c-2.592,0.143-5.183,0.311-7.774,0.422
		c-2.591,0.126-5.183,0.248-7.773,0.341l-7.774,0.29l-7.774,0.239l1.26-1.584c0.745,2.776,1.434,5.565,2.149,8.349l2.127,8.354
		l4.105,16.741l3.962,16.774l1.918,8.402l1.907,8.404h-3.762c1.308-5.595,2.724-11.164,4.079-16.747
		c1.361-5.583,2.822-11.142,4.229-16.714l2.194-8.338c0.725-2.78,1.473-5.557,2.236-8.328c0.754-2.774,1.512-5.548,2.3-8.313
		C167.768,10.079,168.585,7.319,169.391,4.557z"/>
</g>
<path fill="#231F20" d="M104.396,104.126c-37.283,0-64.959-0.919-82.259-2.732C5.54,99.656,1.91,97.417,0.603,95.662
	c-0.823-1.105-0.704-2.17-0.23-2.966L28.95,0h155.256l23.393,91.956c0.508,0.848,0.637,1.988-0.252,3.178
	C205.685,97.357,200.627,104.126,104.396,104.126z M8.281,93.522c3.052,1.285,18.81,5.332,96.116,5.332
	c78.191,0,92.776-4.514,95.362-5.827L177.436,5.272H35.488L8.281,93.522z"/>
<linearGradient id="SVGID_1_" gradientUnits="userSpaceOnUse" x1="98.1543" y1="56.7036" x2="15.197" y2="42.7946">
	<stop  offset="0" style="stop-color:#FFFFFF;stop-opacity:0"/>
	<stop  offset="1" style="stop-color:#020001"/>
</linearGradient>
<path fill="url(#SVGID_1_)" d="M32.219,2.636L4.197,93.53c0,0-9.312,7.94,99.801,7.96V2.636H32.219z"/>
<linearGradient id="SVGID_2_" gradientUnits="userSpaceOnUse" x1="109.9033" y1="57.0005" x2="199.9071" y2="40.8585">
	<stop  offset="0" style="stop-color:#1A1618;stop-opacity:0"/>
	<stop  offset="0.8657" style="stop-color:#221E1F;stop-opacity:0.8335"/>
	<stop  offset="0.9159" style="stop-color:#221E1F;stop-opacity:0"/>
	<stop  offset="1" style="stop-color:#000000"/>
</linearGradient>
<path fill="url(#SVGID_2_)" d="M203.747,92.76L180.821,2.636h-76.823v98.854c0.135,0,0.264,0.001,0.398,0.001
	C213.938,101.491,203.747,92.76,203.747,92.76z"/>
</svg>
